<svg xmlns="http://www.w3.org/2000/svg" width="18.022" height="18.022" viewBox="0 0 18.022 18.022">
  <path id="times-circle" d="M17.011,8a9.011,9.011,0,1,0,9.011,9.011A9.009,9.009,0,0,0,17.011,8Zm4.418,11.376a.436.436,0,0,1,0,.618l-1.439,1.435a.436.436,0,0,1-.618,0l-2.362-2.384-2.365,2.384a.436.436,0,0,1-.618,0l-1.435-1.439a.436.436,0,0,1,0-.618l2.384-2.362-2.384-2.365a.436.436,0,0,1,0-.618l1.439-1.439a.436.436,0,0,1,.618,0l2.362,2.387,2.365-2.384a.436.436,0,0,1,.618,0l1.439,1.439a.436.436,0,0,1,0,.618l-2.387,2.362Z" transform="translate(-8 -8)" fill="#ff4d4d"/>
</svg>
